<?xml version="1.0" standalone="no"?>
<!DOCTYPE svg PUBLIC "-//W3C//DTD SVG 20010904//EN"
 "http://www.w3.org/TR/2001/REC-SVG-20010904/DTD/svg10.dtd">
<svg version="1.0" xmlns="http://www.w3.org/2000/svg"
 width="100.000000pt" height="100.000000pt" viewBox="0 0 314.000000 320.000000"
 preserveAspectRatio="xMidYMid meet">

<g transform="translate(0.000000,320.000000) scale(0.100000,-0.100000)"
fill="#000000" stroke="none">
<path d="M1575 2896 c-194 -51 -323 -190 -366 -395 -42 -200 88 -435 288 -519
184 -78 388 -39 529 102 253 254 157 678 -181 797 -75 26 -202 33 -270 15z
m155 -161 c14 -14 43 -40 64 -58 88 -72 88 -195 1 -173 -17 4 -27 17 -34 42
-18 64 -55 87 -106 68 -27 -11 -45 -62 -33 -95 8 -24 19 -30 74 -42 36 -9 76
-23 90 -32 52 -34 82 -113 70 -181 -7 -36 -69 -114 -91 -114 -6 0 -24 -13 -38
-30 -33 -37 -63 -39 -79 -5 -6 14 -16 25 -21 25 -19 0 -77 51 -93 81 -20 40
-23 107 -4 119 21 14 56 12 67 -2 6 -7 15 -28 22 -47 21 -63 73 -79 116 -36
52 51 21 105 -71 124 -83 17 -126 58 -145 138 -16 72 26 156 91 183 16 7 30
18 30 26 0 15 27 33 50 34 8 0 26 -11 40 -25z"/>
<path d="M794 2366 c-18 -13 -19 -30 -22 -222 l-3 -208 -35 -39 c-47 -52 -109
-148 -129 -201 l-17 -43 -74 -5 c-122 -8 -137 -37 -132 -250 3 -133 4 -138 29
-164 23 -22 38 -27 98 -32 l71 -5 20 -44 c73 -165 248 -334 438 -422 l52 -24
0 -112 c0 -148 -3 -145 163 -145 147 0 147 0 147 102 l0 63 165 0 165 0 0 -66
c0 -95 6 -99 161 -99 84 0 129 4 137 12 8 8 12 50 12 125 l0 113 78 39 c140
70 273 184 350 300 50 75 52 66 20 -89 -23 -116 -33 -210 -24 -244 15 -60 81
-89 149 -67 65 22 157 133 157 190 0 34 -44 71 -83 71 -27 0 -36 -5 -46 -26
-10 -23 -9 -30 7 -48 20 -21 20 -21 -7 -47 -14 -15 -38 -34 -53 -43 -25 -16
-27 -16 -32 2 -4 11 5 77 19 148 40 196 52 341 36 412 -8 31 -17 104 -21 162
-13 196 -81 332 -242 485 -57 54 -165 135 -181 135 -2 0 -34 -30 -72 -68 -82
-79 -163 -125 -271 -152 -196 -51 -402 7 -546 152 -37 38 -77 86 -88 108 -26
50 -31 53 -76 34 l-38 -16 -110 112 c-104 104 -133 129 -147 130 -3 0 -14 -6
-25 -14z m341 -487 c112 -31 168 -139 135 -259 -19 -69 -109 -131 -187 -129
-179 3 -265 224 -134 341 58 51 117 66 186 47z m860 -133 c16 -23 11 -54 -9
-68 -20 -14 -591 -9 -604 4 -18 18 -15 65 6 77 10 6 128 11 304 11 l288 0 15
-24z"/>
</g>
</svg>
