<?xml version="1.0" standalone="no"?><!DOCTYPE svg PUBLIC "-//W3C//DTD SVG 1.1//EN" "http://www.w3.org/Graphics/SVG/1.1/DTD/svg11.dtd"><svg t="1707661137016" class="icon" viewBox="0 0 1024 1024" version="1.1" xmlns="http://www.w3.org/2000/svg" p-id="3431" xmlns:xlink="http://www.w3.org/1999/xlink" width="200" height="200"><path d="M512 97.52381c228.912762 0 414.47619 185.563429 414.47619 414.47619s-185.563429 414.47619-414.47619 414.47619S97.52381 740.912762 97.52381 512 283.087238 97.52381 512 97.52381z m0 73.142857C323.486476 170.666667 170.666667 323.486476 170.666667 512s152.81981 341.333333 341.333333 341.333333 341.333333-152.81981 341.333333-341.333333S700.513524 170.666667 512 170.666667z m96.060952 120.441904l51.687619 51.687619L563.736381 438.857143H694.857143v73.142857h-146.285714v60.952381h146.285714v73.142857h-146.285714v97.52381h-73.142858v-97.52381h-146.285714v-73.142857h146.285714V512h-146.285714v-73.142857h131.145143l-96.060952-96.060953 51.736381-51.687619L512 387.120762l96.060952-96.060952z" p-id="3432"></path></svg>