<?xml version="1.0" standalone="no"?><!DOCTYPE svg PUBLIC "-//W3C//DTD SVG 1.1//EN" "http://www.w3.org/Graphics/SVG/1.1/DTD/svg11.dtd"><svg t="1703309558248" class="icon" viewBox="0 0 1024 1024" version="1.1" xmlns="http://www.w3.org/2000/svg" p-id="5268" xmlns:xlink="http://www.w3.org/1999/xlink" width="120" height="120"><path d="M437.479799 297.270557H53.252549A53.252549 53.252549 0 0 0 0 350.523105v140.209243a53.252549 53.252549 0 0 0 53.252549 53.252548h384.22725a53.252549 53.252549 0 0 0 53.252549-53.252548V350.523105a51.2303 51.2303 0 0 0-53.252549-53.252548z m0 283.114816H106.505097a53.926632 53.926632 0 0 0-53.252548 53.252548v337.041448a53.926632 53.926632 0 0 0 55.94888 53.252549h328.27837a53.252549 53.252549 0 0 0 53.926632-53.252549v-337.041448a54.600715 54.600715 0 0 0-53.926632-53.926631zM269.633158 0a168.520724 168.520724 0 0 0-106.505097 53.252549C98.416103 142.905574 146.275988 269.633158 350.523105 269.633158a179.30605 179.30605 0 0 0 163.128061-107.17918A287.159313 287.159313 0 0 0 269.633158 0z m165.150309 159.757646c0 19.548404-39.096808 45.163554-109.201429 45.163554s-140.209242-39.096808-134.816579-98.416103C190.765459 67.40829 241.321676 55.94888 269.633158 55.94888a157.061315 157.061315 0 0 1 165.150309 103.808766z m539.266316 134.816579H586.452119a53.252549 53.252549 0 0 0-53.252549 53.252549v142.905574a53.252549 53.252549 0 0 0 53.252549 53.252548h384.22725a53.252549 53.252549 0 0 0 53.252549-53.252548V350.523105a51.2303 51.2303 0 0 0-53.252549-53.252548zM674.082895 269.633158c202.224869 0 246.71434-123.35717 182.002382-216.380609A170.542972 170.542972 0 0 0 748.906096 0a269.633158 269.633158 0 0 0-235.25493 159.757646A167.172558 167.172558 0 0 0 674.082895 269.633158zM748.906096 55.94888c28.311482 0 76.171367 14.155741 78.867699 50.556217 5.392663 62.015626-55.94888 98.416103-134.816579 98.416103s-103.808766-24.941067-106.505097-45.163554A150.320486 150.320486 0 0 1 748.906096 55.94888z m168.520724 524.436493H586.452119a53.252549 53.252549 0 0 0-53.252549 53.252548v337.041448a53.252549 53.252549 0 0 0 55.94888 53.252549h328.27837a53.252549 53.252549 0 0 0 53.252549-53.252549v-337.041448a57.971129 57.971129 0 0 0-55.94888-53.926631z" fill="#CCCCCC" p-id="5269"></path></svg>